<svg xmlns="http://www.w3.org/2000/svg" viewBox="0 0 1200 280" font-family="Inter, sans-serif">
  <rect width="1200" height="280" fill="#FFFFFF"/>

  <!-- B -->
  <g transform="translate(60, 30)">
    <rect width="340" height="220" rx="14" fill="#F6F7F8"/>
    <rect width="340" height="5" rx="2.5" fill="#EE5B2B"/>
    <text x="170" y="70" text-anchor="middle" fill="#EE5B2B" font-size="48" font-weight="800">B</text>
    <text x="170" y="105" text-anchor="middle" fill="#1D2330" font-size="20" font-weight="700">Build</text>
    <text x="170" y="135" text-anchor="middle" fill="#676F7E" font-size="13">New features</text>
    <rect x="110" y="165" width="120" height="28" rx="14" fill="rgba(238,91,43,0.08)"/>
    <text x="170" y="184" text-anchor="middle" fill="#EE5B2B" font-size="11" font-weight="500">Vision-driven</text>
  </g>

  <!-- O -->
  <g transform="translate(430, 30)">
    <rect width="340" height="220" rx="14" fill="#F6F7F8"/>
    <rect width="340" height="5" rx="2.5" fill="#1D2330"/>
    <text x="170" y="70" text-anchor="middle" fill="#1D2330" font-size="48" font-weight="800">O</text>
    <text x="170" y="105" text-anchor="middle" fill="#1D2330" font-size="20" font-weight="700">Operate</text>
    <text x="170" y="135" text-anchor="middle" fill="#676F7E" font-size="13">Maintain &amp; improve</text>
    <rect x="100" y="165" width="140" height="28" rx="14" fill="rgba(29,35,48,0.06)"/>
    <text x="170" y="184" text-anchor="middle" fill="#1D2330" font-size="11" font-weight="500">Customer-driven</text>
  </g>

  <!-- N -->
  <g transform="translate(800, 30)">
    <rect width="340" height="220" rx="14" fill="#F6F7F8"/>
    <rect width="340" height="5" rx="2.5" fill="#676F7E"/>
    <text x="170" y="70" text-anchor="middle" fill="#676F7E" font-size="48" font-weight="800">N</text>
    <text x="170" y="105" text-anchor="middle" fill="#1D2330" font-size="20" font-weight="700">iNnovate</text>
    <text x="170" y="135" text-anchor="middle" fill="#676F7E" font-size="13">Experiment &amp; explore</text>
    <rect x="105" y="165" width="130" height="28" rx="14" fill="rgba(103,111,126,0.08)"/>
    <text x="170" y="184" text-anchor="middle" fill="#676F7E" font-size="11" font-weight="500">Research-driven</text>
  </g>
</svg>
