<svg xmlns="http://www.w3.org/2000/svg" viewBox="0 0 1200 240" font-family="Inter, sans-serif">
  <rect width="1200" height="240" fill="#FFFFFF"/>

  <!-- Header -->
  <rect x="40" y="10" width="1120" height="36" rx="6" fill="#1D2330"/>
  <text x="60" y="33" fill="rgba(255,255,255,0.6)" font-size="11" font-weight="600">FINDING</text>
  <text x="700" y="33" fill="rgba(255,255,255,0.6)" font-size="11" font-weight="600">SEVERITY</text>

  <!-- Row 1 -->
  <rect x="40" y="46" width="1120" height="44" fill="#FFFFFF"/>
  <rect x="40" y="46" width="4" height="44" fill="#EF4444"/>
  <text x="60" y="73" fill="#1D2330" font-size="13" font-weight="600">SQL Injection in core service</text>
  <rect x="690" y="57" width="50" height="22" rx="11" fill="rgba(239,68,68,0.1)"/>
  <text x="715" y="72" text-anchor="middle" fill="#EF4444" font-size="10" font-weight="600">High</text>

  <!-- Row 2 -->
  <rect x="40" y="90" width="1120" height="44" fill="#F6F7F8"/>
  <rect x="40" y="90" width="4" height="44" fill="#EAB308"/>
  <text x="60" y="117" fill="#1D2330" font-size="13" font-weight="600">Key-person concentration — 72% from 2 devs</text>
  <rect x="680" y="101" width="70" height="22" rx="11" fill="rgba(234,179,8,0.1)"/>
  <text x="715" y="116" text-anchor="middle" fill="#EAB308" font-size="10" font-weight="600">Medium</text>

  <!-- Row 3 -->
  <rect x="40" y="134" width="1120" height="44" fill="#FFFFFF"/>
  <rect x="40" y="134" width="4" height="44" fill="#EAB308"/>
  <text x="60" y="161" fill="#1D2330" font-size="13" font-weight="600">ML pipeline without governance</text>
  <rect x="680" y="145" width="70" height="22" rx="11" fill="rgba(234,179,8,0.1)"/>
  <text x="715" y="160" text-anchor="middle" fill="#EAB308" font-size="10" font-weight="600">Medium</text>

  <!-- Row 4 -->
  <rect x="40" y="178" width="1120" height="44" fill="#F6F7F8"/>
  <rect x="40" y="178" width="4" height="44" fill="#22C55E"/>
  <text x="60" y="205" fill="#1D2330" font-size="13" font-weight="600">12 deprecated packages</text>
  <rect x="690" y="189" width="50" height="22" rx="11" fill="rgba(34,197,94,0.1)"/>
  <text x="715" y="204" text-anchor="middle" fill="#22C55E" font-size="10" font-weight="600">Low</text>
</svg>
