<svg xmlns="http://www.w3.org/2000/svg" viewBox="0 0 1200 340" font-family="Inter, sans-serif">
  <rect width="1200" height="340" fill="#FFFFFF"/>

  <!-- Row 1 -->
  <g transform="translate(40, 20)">
    <rect width="360" height="88" rx="12" fill="#F6F7F8"/>
    <rect x="16" y="16" width="280" height="8" rx="4" fill="#E5E7EB"/>
    <rect x="16" y="16" width="250" height="8" rx="4" fill="#22C55E"/>
    <circle cx="266" cy="20" r="12" fill="#22C55E"/><text x="266" y="24" text-anchor="middle" fill="#fff" font-size="9" font-weight="700">A</text>
    <text x="16" y="50" fill="#1D2330" font-size="15" font-weight="700">Delivery</text>
    <text x="16" y="70" fill="#676F7E" font-size="11">Ship the roadmap?</text>
  </g>

  <g transform="translate(420, 20)">
    <rect width="360" height="88" rx="12" fill="#F6F7F8"/>
    <rect x="16" y="16" width="280" height="8" rx="4" fill="#E5E7EB"/>
    <rect x="16" y="16" width="150" height="8" rx="4" fill="#EE5B2B"/>
    <circle cx="166" cy="20" r="12" fill="#EE5B2B"/><text x="166" y="24" text-anchor="middle" fill="#fff" font-size="9" font-weight="700">C</text>
    <text x="16" y="50" fill="#1D2330" font-size="15" font-weight="700">Continuity</text>
    <text x="16" y="70" fill="#676F7E" font-size="11">Key-person risk?</text>
  </g>

  <g transform="translate(800, 20)">
    <rect width="360" height="88" rx="12" fill="#F6F7F8"/>
    <rect x="16" y="16" width="280" height="8" rx="4" fill="#E5E7EB"/>
    <rect x="16" y="16" width="240" height="8" rx="4" fill="#22C55E"/>
    <circle cx="256" cy="20" r="12" fill="#22C55E"/><text x="256" y="24" text-anchor="middle" fill="#fff" font-size="9" font-weight="700">A</text>
    <text x="16" y="50" fill="#1D2330" font-size="15" font-weight="700">Defensibility</text>
    <text x="16" y="70" fill="#676F7E" font-size="11">Moat or commodity?</text>
  </g>

  <!-- Row 2 -->
  <g transform="translate(40, 126)">
    <rect width="360" height="88" rx="12" fill="#F6F7F8"/>
    <rect x="16" y="16" width="280" height="8" rx="4" fill="#E5E7EB"/>
    <rect x="16" y="16" width="220" height="8" rx="4" fill="#22C55E"/>
    <circle cx="236" cy="20" r="12" fill="#22C55E"/><text x="236" y="24" text-anchor="middle" fill="#fff" font-size="9" font-weight="700">B</text>
    <text x="16" y="50" fill="#1D2330" font-size="15" font-weight="700">Trajectory</text>
    <text x="16" y="70" fill="#676F7E" font-size="11">Accelerating?</text>
  </g>

  <g transform="translate(420, 126)">
    <rect width="360" height="88" rx="12" fill="#F6F7F8"/>
    <rect x="16" y="16" width="280" height="8" rx="4" fill="#E5E7EB"/>
    <rect x="16" y="16" width="110" height="8" rx="4" fill="#EF4444"/>
    <circle cx="126" cy="20" r="12" fill="#EF4444"/><text x="126" y="24" text-anchor="middle" fill="#fff" font-size="9" font-weight="700">D</text>
    <text x="16" y="50" fill="#1D2330" font-size="15" font-weight="700">Risk</text>
    <text x="16" y="70" fill="#676F7E" font-size="11">What could blow up?</text>
  </g>

  <g transform="translate(800, 126)">
    <rect width="360" height="88" rx="12" fill="#F6F7F8"/>
    <rect x="16" y="16" width="280" height="8" rx="4" fill="#E5E7EB"/>
    <rect x="16" y="16" width="190" height="8" rx="4" fill="#3B82F6"/>
    <circle cx="206" cy="20" r="12" fill="#3B82F6"/><text x="206" y="24" text-anchor="middle" fill="#fff" font-size="9" font-weight="700">B</text>
    <text x="16" y="50" fill="#1D2330" font-size="15" font-weight="700">Code Quality</text>
    <text x="16" y="70" fill="#676F7E" font-size="11">Practices &amp; automation</text>
  </g>

  <!-- Verdict -->
  <g transform="translate(40, 240)">
    <rect width="1120" height="56" rx="12" fill="#1D2330"/>
    <text x="30" y="36" fill="#FFFFFF" font-size="18" font-weight="700">Investable with conditions</text>
    <rect x="900" y="14" width="190" height="28" rx="14" fill="rgba(238, 91, 43, 0.2)"/>
    <text x="995" y="33" text-anchor="middle" fill="#EE5B2B" font-size="12" font-weight="600">3 findings pre-close</text>
  </g>
</svg>
